<?xml version="1.0" standalone="no"?>
<!DOCTYPE svg PUBLIC "-//W3C//DTD SVG 20010904//EN"
 "http://www.w3.org/TR/2001/REC-SVG-20010904/DTD/svg10.dtd">
<svg version="1.0" xmlns="http://www.w3.org/2000/svg"
 width="857.000000pt" height="857.000000pt" viewBox="0 0 857.000000 857.000000"
 preserveAspectRatio="xMidYMid meet">
<metadata>
Created by potrace 1.14, written by Peter Selinger 2001-2017
</metadata>
<g transform="translate(0.000000,857.000000) scale(0.100000,-0.100000)"
fill="#000000" stroke="none">
<path d="M3990 7823 c-47 -144 -100 -255 -171 -358 -75 -108 -118 -152 -324
-325 -155 -130 -228 -249 -234 -382 -1 -16 -4 -16 -41 -3 -22 8 -55 21 -73 29
-34 16 -167 72 -337 141 -189 78 -227 97 -444 233 -79 50 -127 88 -149 117
-35 47 -55 58 -81 43 -29 -16 -17 -61 64 -224 127 -259 199 -454 215 -584 3
-30 9 -68 12 -85 11 -63 9 -366 -3 -485 -18 -163 -57 -422 -69 -458 -3 -9 -32
10 -82 56 -212 189 -418 311 -743 440 -214 85 -457 160 -600 185 -105 19 -254
71 -401 140 -52 25 -126 54 -162 65 -61 18 -67 19 -67 4 0 -21 17 -54 149
-287 28 -49 60 -119 72 -155 19 -63 23 -88 33 -230 3 -36 8 -99 11 -140 3 -41
7 -115 10 -165 3 -49 7 -117 10 -150 2 -33 7 -98 10 -145 4 -47 8 -98 10 -115
2 -16 7 -55 10 -86 3 -31 7 -65 9 -75 2 -11 7 -39 10 -64 3 -25 8 -56 11 -70
3 -14 8 -38 10 -55 3 -16 8 -37 10 -45 2 -8 7 -29 10 -47 10 -63 64 -260 95
-349 82 -238 232 -441 445 -601 17 -13 42 -32 57 -43 l27 -21 -69 -97 c-38
-53 -73 -101 -77 -107 -5 -5 -39 -53 -78 -105 -38 -52 -72 -97 -75 -100 -3 -3
-39 -45 -80 -95 -88 -106 -140 -164 -275 -300 -165 -168 -261 -233 -432 -295
-51 -18 -101 -39 -110 -46 -17 -12 -17 -14 -2 -29 28 -29 138 -22 245 16 65
22 199 33 424 33 137 0 364 -10 410 -18 14 -3 54 -7 90 -11 79 -8 116 -12 155
-19 17 -3 50 -8 75 -11 25 -3 52 -7 60 -9 71 -14 89 -19 85 -27 -3 -4 -54 -45
-113 -91 -245 -189 -388 -367 -522 -653 -80 -171 -121 -249 -179 -339 -17 -28
-31 -56 -31 -63 0 -15 41 -18 55 -4 6 5 46 23 90 41 44 17 89 36 100 40 25 11
86 29 111 34 11 2 37 9 59 15 22 6 58 13 80 16 22 4 47 8 55 10 8 2 42 7 75
11 33 3 69 8 80 10 27 6 301 4 345 -1 19 -3 55 -7 80 -10 59 -8 223 -35 230
-39 3 -2 32 -6 65 -10 33 -3 70 -8 82 -10 23 -5 134 -16 218 -22 64 -5 324 -4
392 1 49 3 88 9 154 20 55 10 225 57 259 72 114 50 202 97 249 132 30 23 58
41 61 41 4 0 12 -19 19 -42 19 -66 80 -187 121 -243 76 -102 208 -206 356
-279 68 -33 255 -101 304 -109 42 -8 94 -17 122 -21 46 -7 240 -22 408 -31
130 -7 188 -20 307 -67 69 -27 119 -55 153 -84 29 -24 57 -44 64 -44 8 0 13
16 14 43 8 260 92 454 336 776 61 81 244 294 267 311 21 16 208 234 244 284
54 77 108 184 130 261 10 33 22 72 27 87 10 28 10 28 37 10 82 -57 257 -123
391 -147 74 -14 284 -14 360 0 66 12 215 55 315 91 328 118 411 147 504 174
69 20 187 24 266 9 57 -11 81 -5 95 22 17 31 -24 64 -89 72 -60 7 -106 39
-204 141 -79 82 -93 104 -252 386 -238 423 -327 544 -514 708 l-35 30 46 94
c67 135 116 267 149 397 31 125 36 167 44 356 5 129 10 222 20 385 2 47 7 135
11 195 12 237 19 289 49 403 41 159 108 288 216 418 49 58 89 109 89 114 0 21
-41 39 -104 44 -38 4 -71 8 -75 10 -3 2 -28 7 -56 10 -27 3 -111 15 -185 27
-175 27 -397 33 -510 13 -177 -31 -376 -114 -523 -219 -55 -39 -79 -51 -83
-42 -3 8 -15 85 -28 173 -19 124 -23 190 -20 299 2 77 5 149 7 160 2 11 7 36
11 55 4 19 8 42 10 50 6 36 29 109 48 150 59 138 98 194 200 297 59 60 69 75
59 87 -11 13 -18 13 -59 -3 -45 -18 -619 -272 -749 -332 -35 -15 -102 -45
-150 -66 -121 -51 -285 -133 -363 -181 -71 -44 -75 -43 -86 23 -17 103 -111
249 -249 391 -162 166 -274 238 -530 339 -381 150 -446 200 -476 363 -11 57
-31 92 -55 92 -7 0 -30 -53 -54 -127z m435 -2658 c153 -38 287 -125 361 -235
49 -72 59 -108 69 -240 8 -99 9 -97 -90 -166 -104 -73 -101 -70 -226 -194
-125 -125 -179 -203 -234 -342 l-32 -79 -54 46 c-73 62 -184 113 -284 130 -16
3 -59 12 -93 19 -64 13 -311 15 -382 2 -34 -6 -61 -8 -220 -22 -41 -3 -77 -8
-80 -9 -19 -11 -92 95 -115 166 -50 150 22 376 163 515 152 150 362 279 566
349 44 15 87 28 95 30 9 2 54 13 101 24 128 30 126 30 260 26 74 -2 155 -10
195 -20z"/>
<path d="M4394 5031 c-74 -32 -86 -153 -21 -196 41 -27 90 -27 128 -2 61 41
68 122 16 175 -26 26 -89 37 -123 23z"/>
<path d="M3495 4855 c-105 -52 -67 -215 50 -215 83 0 136 87 100 163 -25 54
-97 78 -150 52z"/>
<path d="M3963 4825 c-84 -36 -87 -166 -5 -204 46 -22 92 -13 128 23 89 89 -7
230 -123 181z"/>
<path d="M4505 4675 c-5 -2 -22 -6 -37 -9 -38 -9 -77 -69 -72 -110 8 -70 50
-106 122 -106 79 0 130 103 85 170 -9 14 -17 26 -18 27 -4 7 -72 30 -80 28z"/>
<path d="M4078 4437 c-56 -29 -81 -75 -74 -139 8 -74 58 -118 135 -118 82 0
146 70 136 149 -7 52 -21 77 -62 102 -46 29 -86 31 -135 6z"/>
<path d="M3443 4405 c-117 -49 -82 -222 44 -217 125 5 147 183 26 218 -31 9
-46 9 -70 -1z"/>
</g>
</svg>
